<?xml version="1.0" encoding="utf-8"?>
<!-- Uploaded to: SVG Repo, www.svgrepo.com, Generator: SVG Repo Mixer Tools -->
<svg width="800px" height="800px" viewBox="0 0 1024 1024" class="icon"  version="1.1" xmlns="http://www.w3.org/2000/svg"><path d="M512 505.6c-108.8 0-204.8-89.6-204.8-204.8S396.8 102.4 512 102.4c108.8 0 204.8 89.6 204.8 204.8S620.8 505.6 512 505.6z m0-358.4c-83.2 0-153.6 70.4-153.6 153.6s64 153.6 153.6 153.6 153.6-70.4 153.6-153.6S595.2 147.2 512 147.2z" fill="#ffffff" /><path d="M832 864c0-211.2-147.2-377.6-326.4-377.6s-326.4 166.4-326.4 377.6H832z" fill="#ffffff" /><path d="M832 889.6H147.2v-25.6c0-224 160-403.2 352-403.2s352 179.2 352 396.8v25.6l-19.2 6.4z m-633.6-51.2h608C800 659.2 665.6 512 505.6 512c-166.4 0-294.4 147.2-307.2 326.4zM710.4 499.2c-12.8 0-25.6-12.8-25.6-25.6s12.8-25.6 25.6-25.6c64 0 121.6-51.2 121.6-121.6 0-51.2-32-96-83.2-115.2-12.8-6.4-19.2-19.2-12.8-32 6.4-12.8 19.2-19.2 32-12.8 70.4 19.2 115.2 83.2 115.2 160-6.4 96-83.2 172.8-172.8 172.8z" fill="#ffffff" /><path d="M966.4 806.4h-57.6c-12.8 0-25.6-12.8-25.6-25.6s12.8-25.6 25.6-25.6h32c-12.8-140.8-115.2-249.6-236.8-249.6-12.8 0-25.6-12.8-25.6-25.6s12.8-25.6 25.6-25.6c160 0 288 147.2 288 326.4v25.6h-25.6z" fill="#ffffff" /><path d="M300.8 499.2c-6.4 0-6.4 0 0 0-44.8 0-89.6-12.8-121.6-44.8-32-32-44.8-76.8-44.8-121.6 0-70.4 44.8-134.4 115.2-160 12.8-6.4 25.6 0 32 12.8 6.4 12.8 0 25.6-12.8 32-57.6 19.2-89.6 64-89.6 115.2 0 32 12.8 64 32 83.2 19.2 25.6 51.2 32 83.2 38.4 19.2 0 25.6 12.8 25.6 25.6s-6.4 19.2-19.2 19.2z" fill="#ffffff" /><path d="M89.6 806.4H12.8v-25.6c0-179.2 128-320 288-320 12.8 0 25.6 12.8 25.6 25.6s-12.8 25.6-25.6 25.6C179.2 512 76.8 620.8 64 761.6h32c12.8 0 25.6 12.8 25.6 25.6-6.4 6.4-12.8 19.2-32 19.2z" fill="#ffffff" /></svg>