<?xml version="1.0" encoding="utf-8"?><!-- Uploaded to: SVG Repo, www.svgrepo.com, Generator: SVG Repo Mixer Tools -->
<svg width="800px" height="800px" viewBox="0 0 20 20" xmlns="http://www.w3.org/2000/svg" fill="none">
  <path fill="#ff3300" fill-rule="evenodd" d="M19 4a1 1 0 01-1 1H7a1 1 0 010-2h11a1 1 0 011 1zM4 4a1 1 0 01-1 1H2a1 1 0 010-2h1a1 1 0 011 1zm15 6a1 1 0 01-1 1H7a1 1 0 110-2h11a1 1 0 011 1zM4 10a1 1 0 01-1 1H2a1 1 0 110-2h1a1 1 0 011 1zm14 7a1 1 0 100-2H7a1 1 0 100 2h11zM3 17a1 1 0 100-2H2a1 1 0 100 2h1z"/>
</svg>